<svg width="416" height="237" viewBox="0 0 416 237" fill="none" xmlns="http://www.w3.org/2000/svg">
<g clip-path="url(#clip0_296_27)">
<path fill-rule="evenodd" clip-rule="evenodd" d="M41.5636 0.138125H0.145497V39.4578H37.2727L41.5636 35.3843V0.138125ZM45.969 39.4578L41.7334 35.4368V0.138125H83.1515V39.4578H45.969ZM41.7334 43.5801L45.9059 39.619H83.1515V78.9386H41.7334V43.5801ZM37.3358 39.619L41.5636 43.6326V78.9386H0.145497V39.619H37.3358ZM0 0V39.4808V39.5959V78.9616V79.0768V118.442V118.557V157.923V158.038V197.404V197.519V237H41.5879H41.7091H83.1757H83.297H124.764H124.885H166.351H166.473H207.939H208.061H249.527H249.648H291.115H291.236H332.703H332.824H374.291H374.412H416L416 197.519V158.038V157.923V118.442V79.0768V39.5959V39.4808V0H374.412H374.291H332.824H332.703H291.236H291.115H249.648H249.527H208.061H207.939H166.473H166.351H124.885H124.764H83.297H83.1757H41.7091H41.5879H0ZM83.3212 0.138125H124.739V39.4578H83.3212V0.138125ZM166.327 0.138125H124.909V39.4578H166.327V0.138125ZM166.497 0.138125H207.915V39.4578H166.497V0.138125ZM249.503 0.138125H208.085V39.4578H249.503V0.138125ZM249.673 0.138125H291.091V39.4578H249.673V0.138125ZM332.679 0.138125H291.261V39.4578H332.679V0.138125ZM332.848 0.138125H374.266V39.4578H332.848V0.138125ZM415.855 0.138125H374.436V39.4578H415.855V0.138125ZM83.3212 39.619H124.739V78.9386H83.3212V39.619ZM166.327 39.619H124.909V78.9386H162.161L166.327 74.9836V39.619ZM170.596 78.9386L166.497 75.0469V39.619H207.915V78.9386H170.596ZM166.497 83.1794L170.78 79.1132L170.766 79.0997H207.915V118.419H166.497V83.1794ZM161.991 79.0997L161.977 79.1132L166.327 83.2427V118.419H124.909V79.0997H161.991ZM249.503 39.619H208.085V78.9386H249.503V39.619ZM249.673 39.619H291.091V78.9386H249.673V39.619ZM332.679 39.619H291.261V78.9386H332.679V39.619ZM332.848 39.619H374.266V68.0301L374.196 68.0968L362.776 78.9386H332.848V39.619ZM362.606 79.0997H332.848V114.546L332.988 114.414L337.207 118.419H374.267V90.1963L374.196 90.1295L362.704 79.2198L362.592 79.1132L362.606 79.0997ZM374.267 89.983L362.817 79.1132L362.831 79.0997H369.921L369.907 79.1132L374.267 83.2517V89.983ZM374.436 90.115V118.419H415.854V79.0997H386.011L386.025 79.1132L385.913 79.2198L374.436 90.115ZM385.786 79.0997L385.801 79.1132L374.436 89.9016V83.1705L378.71 79.1132L378.696 79.0997H385.786ZM385.841 78.9386H415.855V39.619H374.436V68.1114L385.841 78.9386ZM374.436 68.3248L385.617 78.9386H378.526L374.436 75.0559V68.3248ZM374.266 68.2434L363.001 78.9386H370.091L374.266 74.9747V68.2434ZM332.848 122.639L332.988 122.771L337.389 118.592L337.377 118.581H374.266V157.9H332.848V122.639ZM328.598 118.581L328.586 118.592L332.679 122.477V157.9H291.261V118.581H328.598ZM332.679 114.707L328.768 118.419H291.261V79.0997H332.679V114.707ZM0.145497 79.0997H41.5636V118.419H0.145497V79.0997ZM83.1515 79.0997H41.7334V118.419H83.1515V79.0997ZM83.3212 79.0997H124.739V118.419H83.3212V79.0997ZM249.503 79.0997H208.085V118.419H249.503V79.0997ZM249.673 79.0997H291.091V118.419H249.673V79.0997ZM0.145497 118.581H41.5636V157.9H0.145497V118.581ZM83.1515 118.581H41.7334V157.9H71.7075L71.6536 157.849L71.766 157.742L83.1515 146.934V118.581ZM83.1515 147.147L71.8783 157.849L71.9322 157.9H79.0227L78.9688 157.849L83.1515 153.878V147.147ZM83.3212 153.717V146.986L83.3703 146.939L94.8622 157.849L94.8083 157.9H87.7179L87.7718 157.849L83.3703 153.671L83.3212 153.717ZM83.3212 161.981L83.3703 162.028L87.5481 158.061H94.6385L83.3703 168.759L83.3212 168.712V161.981ZM79.1925 158.061L83.1515 161.82V168.551L72.102 158.061H79.1925ZM71.8773 158.061H41.7334V197.381H83.1515V168.764L71.8773 158.061ZM83.3212 168.925V197.381H124.739V158.061H94.8633L83.4826 168.865L83.3703 168.972L83.3212 168.925ZM95.0331 157.9H124.739V118.581H83.3212V146.773L83.3703 146.726L83.4826 146.833L94.9745 157.742L95.0869 157.849L95.0331 157.9ZM166.327 118.581H124.909V157.9H166.327V118.581ZM166.497 118.581H207.915V157.9H166.497V118.581ZM249.503 118.581H208.085V157.9H249.503V118.581ZM249.673 118.581H291.091V157.9H249.673V118.581ZM415.855 118.581H374.436V157.9H415.855V118.581ZM0.145497 158.061H41.5636V197.381H0.145497V158.061ZM166.327 158.061H124.909V197.381H166.327V158.061ZM166.497 158.061H207.915V197.381H166.497V158.061ZM249.503 158.061H208.085V197.381H249.503V158.061ZM249.673 158.061H291.091V197.381H249.673V158.061ZM332.679 158.061H291.261V197.381H332.679V158.061ZM332.848 158.061H374.266V197.381H332.848V158.061ZM415.855 158.061H374.436V197.381H415.855V158.061ZM0.145497 197.542H41.5636V236.862H0.145497V197.542ZM83.1515 197.542H41.7334V236.862H83.1515V197.542ZM83.3212 197.542H124.739V236.862H83.3212V197.542ZM166.327 197.542H124.909V236.862H166.327V197.542ZM166.497 197.542H207.915V236.862H166.497V197.542ZM249.503 197.542H208.085V236.862H249.503V197.542ZM249.673 197.542H291.091V236.862H249.673V197.542ZM332.679 197.542H291.261V236.862H332.679V197.542ZM332.848 197.542H374.266V236.862H332.848V197.542ZM415.854 197.542H374.436V236.862H415.854V197.542Z" fill="url(#paint0_radial_296_27)" fill-opacity="0.08"/>
</g>
<defs>
<radialGradient id="paint0_radial_296_27" cx="0" cy="0" r="1" gradientUnits="userSpaceOnUse" gradientTransform="translate(208 -133.022) rotate(90) scale(340.161 597.075)">
<stop/>
<stop offset="1" stop-opacity="0.67"/>
</radialGradient>
<clipPath id="clip0_296_27">
<path d="M0 0H404C410.627 0 416 5.37258 416 12V225C416 231.627 410.627 237 404 237H0V0Z" fill="white"/>
</clipPath>
</defs>
</svg>
